<svg width="173" height="106" viewBox="0 0 173 106" fill="none" xmlns="http://www.w3.org/2000/svg">
<g clip-path="url(#clip0)">
<path d="M172.999 106L137.83 66.5844L169.241 30.3418H146.26L115.601 66.5844L150.287 106H172.999Z" fill="#FF6F00"/>
<path d="M111.629 55.8945C111.629 49.7149 110.501 45.0941 109.159 41.9764C107.441 37.968 104.595 34.6834 100.675 32.1781C98.42 30.7306 95.9502 29.7285 93.3192 29.1161C91.3325 28.6708 89.2385 28.3924 86.9833 28.3924C81.9899 28.3924 77.3722 29.5615 73.1304 31.8441C68.8887 34.1823 65.3449 37.5227 62.4455 41.9764C60.1903 37.5227 57.2372 34.1266 53.586 31.8441C49.9349 29.5615 45.8005 28.3924 41.2366 28.3924C36.7263 28.3924 32.5382 29.2832 28.726 31.009C24.9137 32.7905 21.4237 35.4628 18.3095 39.0258V27.947H0V106H18.3095V72.3735C18.3095 65.0804 18.9001 59.7916 20.135 56.3956C21.37 52.9995 23.2493 50.3829 25.7192 48.4901C28.189 46.5972 30.9811 45.6508 34.0416 45.6508C36.78 45.6508 39.0888 46.3745 41.0218 47.8777C42.9547 49.3808 44.4045 51.6077 45.3709 54.6697C46.3374 57.7317 46.8207 62.6308 46.8207 69.3672V106H65.2375V71.8724C65.2375 64.6351 65.8281 59.4019 67.0631 56.1172C68.2443 52.8325 70.1236 50.2716 72.5935 48.4344C75.0634 46.5972 77.8555 45.6508 81.0234 45.6508C85.1578 45.6508 88.2183 47.154 90.2587 50.2159C92.299 53.2779 93.3192 59.0678 93.3192 67.6414V106H111.629H111.736C111.79 106 111.629 68.6991 111.629 55.8945Z" fill="#1A237E"/>
<path d="M103.735 23.8834C104.165 24.1618 104.541 24.4401 104.917 24.7185C105.883 25.3309 106.85 26.1103 107.655 26.8897C109.159 28.2258 110.501 29.729 111.628 31.3435V0H93.3188V19.875C93.7484 19.9307 94.1779 20.042 94.5538 20.0977C97.8828 20.8771 100.943 22.1576 103.735 23.8834Z" fill="#FF6F00"/>
</g>
<defs>
<clipPath id="clip0">
<rect width="173" height="106" fill="white"/>
</clipPath>
</defs>
</svg>
